<?xml version="1.0" encoding="iso-8859-1"?>
<!-- Uploaded to: SVG Repo, www.svgrepo.com, Generator: SVG Repo Mixer Tools -->
<svg height="800px" width="800px" version="1.1" id="Layer_1" xmlns="http://www.w3.org/2000/svg" xmlns:xlink="http://www.w3.org/1999/xlink" 
	 viewBox="0 0 512 512" xml:space="preserve">
<path style="fill:#C11D26;" d="M437.019,74.981C388.668,26.629,324.381,0,255.999,0S123.332,26.629,74.981,74.981
	C26.629,123.332,0,187.62,0,255.999s26.629,132.669,74.981,181.019C123.333,485.371,187.621,512,256.001,512
	s132.667-26.629,181.018-74.982C485.371,388.667,512,324.379,512,255.999S485.371,123.332,437.019,74.981z"/>
<path style="fill:#F54831;" d="M255.999,0C187.62,0,123.332,26.629,74.981,74.981C26.629,123.332,0,187.62,0,255.999
	s26.629,132.669,74.981,181.019C123.333,485.371,187.621,512,256.001,512V0H255.999z"/>
<path style="fill:#F27B1D;" d="M303.942,310.874c-1.992-4.747-5.94-8.401-10.825-10.024c-4.885-1.621-10.234-1.052-14.67,1.563
	c-6.829,4.026-14.66,6.153-22.653,6.153c-7.901,0-15.649-2.08-22.426-6.019c-0.367-0.223-0.744-0.434-1.133-0.634
	c-8.343-4.303-18.691-1.388-23.518,6.797c-0.542,0.92-0.992,1.867-1.354,2.834l-33.419,79.636
	c-5.197,12.382-3.861,26.451,3.574,37.635c7.435,11.182,19.89,17.859,33.319,17.859h89.909c13.429,0,25.884-6.676,33.319-17.859
	c7.435-11.184,8.771-25.253,3.574-37.635L303.942,310.874z"/>
<path style="fill:#FFD370;" d="M255.795,308.567c-7.901,0-15.649-2.08-22.426-6.019c-0.367-0.223-0.744-0.434-1.133-0.634
	c-8.343-4.303-18.691-1.388-23.518,6.797c-0.542,0.92-0.992,1.867-1.354,2.834l-33.419,79.636
	c-5.197,12.382-3.861,26.451,3.574,37.635c7.435,11.182,19.89,17.859,33.319,17.859h45.159L255.795,308.567z"/>
<path style="fill:#F27B1D;" d="M445.441,213.46l-40.459-80.291c-6.043-11.992-17.609-20.11-30.942-21.717
	c-13.329-1.606-26.498,3.53-35.217,13.744l-56.551,66.234c-3.342,3.915-4.829,9.083-4.079,14.177
	c0.751,5.093,3.666,9.612,7.997,12.397c6.668,4.287,12.093,10.326,15.689,17.461c3.562,7.069,5.19,14.939,4.713,22.776
	c-0.025,0.322-0.042,0.647-0.049,0.975c-0.239,9.508,7.071,17.59,16.648,18.224c0.401,0.026,0.798,0.039,1.193,0.039
	c0.654,0,1.299-0.036,1.936-0.105l86.166-5.993c13.397-0.932,25.359-8.456,32-20.128
	C451.126,239.581,451.484,225.452,445.441,213.46z"/>
<path style="fill:#FFD370;" d="M187.616,277.478c0.395,0,0.793-0.013,1.193-0.039c9.578-0.634,16.887-8.716,16.648-18.224
	c-0.007-0.327-0.024-0.651-0.049-0.975c-0.477-7.838,1.151-15.708,4.713-22.776c3.596-7.135,9.02-13.173,15.689-17.46
	c4.33-2.784,7.246-7.304,7.997-12.397c0.75-5.093-0.737-10.261-4.079-14.177l-56.552-66.236
	c-8.719-10.211-21.882-15.35-35.216-13.743c-13.332,1.607-24.899,9.726-30.942,21.718l-40.458,80.29
	c-6.043,11.992-5.686,26.12,0.954,37.792c6.641,11.672,18.603,19.196,31.999,20.128l86.166,5.993
	C186.316,277.443,186.962,277.478,187.616,277.478z"/>
<path style="fill:#F27B1D;" d="M255.838,229.254c-16.474,0-29.877,13.403-29.877,29.877c0,16.474,13.403,29.877,29.877,29.877
	s29.877-13.403,29.877-29.877C285.715,242.657,272.312,229.254,255.838,229.254z"/>
<path style="fill:#FFD370;" d="M255.838,229.254c-16.474,0-29.877,13.403-29.877,29.877c0,16.474,13.403,29.877,29.877,29.877
	V229.254z"/>
</svg>